<?xml version="1.0" standalone="no"?>
<!DOCTYPE svg PUBLIC "-//W3C//DTD SVG 20010904//EN"
 "http://www.w3.org/TR/2001/REC-SVG-20010904/DTD/svg10.dtd">
<svg version="1.0" xmlns="http://www.w3.org/2000/svg"
 width="2000.000000pt" height="2000.000000pt" viewBox="0 0 2000.000000 2000.000000"
 preserveAspectRatio="xMidYMid meet">
<metadata>
Created by potrace 1.14, written by Peter Selinger 2001-2017
</metadata>
<g transform="translate(0.000000,2000.000000) scale(0.100000,-0.100000)"
fill="#000000" stroke="none">
<path d="M0 10000 l0 -10000 10000 0 10000 0 0 10000 0 10000 -10000 0 -10000
0 0 -10000z m17040 4790 c44 -44 20 -69 -100 -107 -52 -17 -149 -47 -215 -68
-66 -20 -144 -45 -173 -56 -30 -10 -72 -19 -94 -19 -22 0 -68 -4 -102 -10
-129 -21 -172 -29 -211 -38 -37 -10 -68 -16 -200 -40 -80 -15 -200 -49 -247
-70 -24 -11 -83 -36 -133 -56 -49 -20 -103 -44 -120 -53 -75 -40 -182 -91
-205 -98 -14 -4 -36 -15 -50 -25 -14 -9 -59 -35 -100 -57 -76 -40 -164 -92
-210 -123 -14 -9 -41 -25 -60 -35 -19 -9 -55 -34 -80 -54 -25 -20 -67 -49 -93
-65 -26 -15 -63 -41 -82 -58 -19 -16 -48 -39 -64 -51 -101 -75 -331 -269 -418
-353 -57 -54 -117 -113 -135 -129 -50 -46 -138 -145 -187 -211 -25 -32 -64
-79 -87 -104 -53 -57 -201 -264 -234 -327 -13 -26 -34 -61 -46 -78 -27 -37
-182 -355 -199 -410 -8 -22 -25 -71 -39 -110 -13 -38 -31 -104 -40 -145 -8
-41 -19 -93 -25 -115 -5 -22 -14 -107 -20 -190 -25 -342 38 -567 203 -730 105
-103 241 -175 411 -219 28 -7 59 -17 71 -24 11 -6 56 -16 100 -21 147 -20 211
-31 236 -40 14 -5 112 -14 219 -20 107 -7 241 -16 299 -21 58 -6 176 -10 262
-10 94 0 159 -4 163 -10 8 -13 106 -13 140 0 17 7 40 7 63 1 21 -5 159 -12
307 -15 367 -9 452 -17 543 -54 40 -17 88 -42 108 -57 39 -30 125 -157 172
-255 31 -64 152 -348 152 -356 0 -2 19 -43 41 -91 47 -100 128 -240 171 -295
38 -49 166 -134 237 -157 86 -29 244 -45 357 -37 54 4 110 6 124 6 14 0 48 5
77 10 47 10 57 17 108 79 38 48 63 91 82 142 23 67 26 89 27 234 1 139 -3 178
-27 295 -15 74 -32 144 -37 155 -5 11 -23 62 -40 114 -32 97 -108 256 -168
351 -78 122 -227 342 -308 455 -125 175 -164 236 -164 257 0 24 14 23 61 -4
33 -18 43 -20 64 -10 15 7 23 16 20 22 -8 13 13 50 29 50 7 0 25 -9 40 -21 25
-20 28 -20 52 -5 13 10 22 21 19 27 -4 6 9 7 34 3 37 -6 41 -5 41 15 0 19 4
20 44 15 35 -5 52 -2 78 14 40 24 112 39 106 22 -2 -7 10 -26 27 -44 35 -38
115 -152 115 -165 0 -5 3 -11 8 -13 12 -5 82 -104 82 -116 0 -6 4 -12 9 -14
18 -6 99 -138 89 -144 -6 -4 4 -15 21 -26 17 -11 44 -41 58 -67 15 -25 44 -71
64 -101 110 -165 203 -402 245 -630 35 -186 25 -440 -21 -526 -14 -26 -25 -55
-25 -65 0 -10 -4 -20 -10 -24 -5 -3 -24 -33 -41 -66 -68 -128 -208 -206 -564
-314 -66 -20 -145 -45 -175 -56 -82 -28 -243 -66 -355 -85 -224 -37 -627 -21
-697 27 -14 11 -33 19 -42 19 -9 0 -44 20 -79 44 -54 37 -77 45 -148 56 -46 8
-92 13 -101 12 -10 0 -18 3 -18 9 0 5 32 9 70 9 81 0 87 9 40 63 -16 19 -30
39 -30 43 0 5 -13 28 -28 50 -53 81 -111 199 -148 299 -65 178 -192 437 -250
508 -48 60 -122 107 -168 107 -14 0 -36 4 -50 10 -25 9 -151 14 -631 25 -115
3 -223 9 -240 13 -17 5 -46 4 -69 -1 -27 -7 -53 -7 -85 1 -25 7 -171 17 -323
22 -152 6 -283 12 -290 15 -7 2 -44 7 -83 9 -66 5 -163 16 -300 36 -63 9 -236
48 -320 73 -72 21 -230 97 -311 150 -39 25 -93 70 -120 100 -51 55 -134 183
-134 205 0 7 -8 29 -19 50 -46 93 -73 308 -60 486 14 190 36 360 52 398 8 18
20 58 27 88 13 59 27 94 97 260 60 141 82 188 111 235 14 22 39 65 55 95 54
98 152 250 205 315 13 17 51 66 83 110 33 44 113 134 178 200 65 66 123 130
130 142 6 12 20 24 30 28 11 3 23 14 26 23 3 9 24 31 46 47 21 17 59 48 82 70
122 115 278 245 315 264 23 12 42 25 42 30 0 5 22 23 50 40 27 17 67 46 88 66
22 19 66 49 98 67 33 17 75 44 94 59 19 16 39 29 43 29 5 0 23 12 41 27 17 14
45 32 61 39 17 8 57 29 90 48 33 20 102 56 154 82 52 26 110 58 129 70 19 13
42 24 50 24 9 0 45 14 81 31 36 17 89 42 116 55 164 77 539 212 750 269 33 9
69 20 80 25 27 12 189 56 295 81 47 10 105 26 130 33 51 16 138 35 220 46 30
5 107 17 170 28 63 11 149 23 191 27 42 4 82 11 90 16 22 14 37 11 59 -11z
m-9334 -1020 c127 -11 320 -49 379 -75 17 -7 44 -16 60 -20 50 -11 193 -77
267 -124 71 -45 78 -82 78 -411 l0 -273 -30 -47 c-36 -56 -67 -85 -100 -95
-14 -4 -38 -18 -55 -31 -39 -29 -152 -68 -257 -89 -46 -9 -96 -20 -113 -25
-16 -5 -77 -16 -135 -24 -58 -8 -117 -19 -130 -24 -14 -5 -54 -13 -90 -17 -36
-4 -85 -11 -110 -17 -25 -5 -112 -18 -195 -29 -345 -42 -463 -58 -486 -64 -13
-3 -89 -14 -169 -25 -252 -35 -406 -57 -502 -75 -228 -41 -579 -112 -733 -149
-101 -24 -337 -85 -385 -100 -25 -8 -85 -26 -135 -41 -231 -70 -520 -176 -713
-261 -68 -30 -128 -54 -133 -54 -6 0 -27 -9 -47 -20 -20 -11 -68 -34 -107 -51
-152 -68 -451 -222 -560 -288 -16 -10 -55 -34 -86 -52 -113 -69 -280 -178
-393 -259 -160 -114 -460 -412 -563 -560 -86 -122 -183 -294 -183 -322 0 -8
-10 -29 -23 -48 -33 -49 -80 -168 -112 -285 -15 -55 -36 -126 -46 -157 -11
-32 -19 -69 -19 -82 0 -14 -7 -45 -15 -69 -8 -24 -22 -95 -30 -158 -9 -63 -20
-127 -26 -144 -6 -16 -14 -81 -19 -142 -5 -62 -14 -129 -21 -148 -12 -31 -17
-35 -50 -35 -24 0 -39 5 -43 16 -3 9 -6 142 -6 297 1 327 18 501 75 772 20 94
40 195 45 225 11 75 45 184 93 305 11 28 32 84 47 125 15 42 53 119 84 173 31
54 56 100 56 102 0 5 111 170 193 286 48 69 259 279 350 349 28 22 88 69 132
105 117 94 371 262 499 330 34 18 93 49 131 70 101 56 365 190 400 204 17 6
41 17 55 25 14 7 48 23 75 36 28 12 68 30 90 40 177 80 455 190 555 219 19 6
60 19 90 30 30 11 132 42 225 70 94 28 190 57 215 65 25 7 108 28 185 46 77
18 163 39 190 46 28 8 97 23 155 34 163 30 261 49 310 60 46 10 205 36 432 70
71 10 136 21 145 24 10 3 88 15 173 26 297 39 313 42 327 70 16 32 17 132 1
233 -11 71 -10 83 9 140 12 34 24 73 27 87 8 38 120 147 159 155 17 4 50 16
71 27 69 35 227 45 442 28z m2545 -526 c19 -24 36 -607 19 -667 -11 -40 -16
-62 -39 -202 -32 -191 -42 -464 -23 -655 16 -166 32 -290 42 -329 5 -20 20
-83 34 -141 26 -106 67 -239 106 -340 12 -30 25 -66 30 -80 17 -53 44 -116 60
-140 10 -14 28 -52 42 -85 23 -58 70 -138 165 -281 24 -35 49 -72 58 -81 139
-163 247 -283 255 -283 4 0 18 -11 31 -25 13 -14 58 -51 99 -82 41 -32 77 -60
80 -63 10 -12 207 -138 260 -167 99 -54 114 -62 155 -79 22 -9 63 -27 90 -40
28 -12 64 -26 80 -30 17 -4 41 -13 55 -20 28 -16 135 -48 330 -100 119 -31
202 -48 420 -84 134 -22 453 -34 920 -34 334 0 497 -3 502 -11 5 -7 13 -7 25
1 11 7 70 10 153 9 74 0 155 2 180 6 25 4 80 10 122 13 42 3 123 13 180 21 57
8 179 21 272 30 92 8 171 17 175 19 4 3 60 7 126 11 66 3 143 8 170 10 28 3
82 8 120 11 39 3 74 8 78 11 5 3 17 -3 28 -13 13 -12 23 -15 27 -8 11 17 60
19 217 9 100 -6 105 -7 105 -16 0 -13 -42 -23 -115 -25 -172 -7 -242 -12 -265
-17 -14 -4 -74 -9 -135 -12 -60 -2 -121 -8 -135 -11 -14 -3 -50 -8 -80 -10
-30 -2 -86 -8 -125 -13 -63 -9 -114 -13 -182 -13 -18 0 -23 -6 -23 -24 0 -21
-5 -24 -37 -24 -21 0 -62 -3 -90 -6 -47 -6 -53 -5 -54 12 -1 17 -2 17 -6 2 -3
-11 -13 -18 -26 -17 -12 0 -16 3 -9 6 19 8 14 23 -8 23 -11 0 -23 -7 -27 -16
-5 -13 -7 -13 -14 -2 -7 10 -9 9 -9 -4 0 -10 -7 -18 -16 -18 -9 0 -23 8 -30
18 -12 16 -13 15 -14 -5 0 -19 -6 -23 -30 -23 -20 0 -30 5 -30 15 0 8 -4 15
-10 15 -5 0 -10 -7 -10 -16 0 -12 -7 -15 -23 -12 -13 2 -29 -2 -36 -9 -13 -15
-83 -8 -89 8 -7 18 -41 8 -70 -20 l-31 -28 -9 26 c-13 38 -48 38 -61 0 -7 -20
-15 -27 -25 -23 -12 5 -16 -1 -16 -21 0 -20 4 -26 15 -21 8 3 21 -1 29 -9 22
-22 45 -18 56 10 10 27 40 25 40 -4 1 -15 2 -15 13 0 7 9 29 19 49 23 21 4 44
13 52 21 17 18 42 19 52 4 4 -7 25 -9 58 -5 99 12 221 13 228 2 5 -7 8 -5 8 5
0 9 8 19 18 22 9 2 25 8 35 12 14 6 17 2 17 -20 0 -14 4 -24 10 -20 5 3 7 12
3 20 -3 9 1 15 10 15 8 0 14 -7 13 -17 -1 -19 51 -19 229 -3 190 18 305 22
305 10 0 -5 -8 -10 -17 -11 -10 0 -27 -2 -38 -4 -70 -12 -268 -36 -370 -45
-201 -17 -235 -20 -375 -30 -74 -5 -175 -12 -225 -16 -49 -4 -101 -7 -115 -6
-14 0 -39 -4 -57 -9 -18 -6 -94 -12 -170 -14 -76 -2 -148 -4 -160 -4 -19 -1
-23 -7 -23 -32 l0 -30 158 1 c86 1 163 1 170 1 6 -1 12 -12 12 -25 0 -21 4
-24 27 -22 15 2 33 -2 39 -9 9 -8 36 -11 88 -7 73 4 76 4 76 -17 0 -12 4 -20
9 -17 5 3 12 -4 16 -17 6 -21 7 -21 17 8 17 47 32 50 38 8 7 -53 30 -55 30 -4
0 23 2 41 4 41 2 0 11 3 20 6 12 5 14 -1 9 -29 -4 -29 -2 -37 16 -46 12 -7 27
-9 33 -5 7 5 31 9 53 9 108 4 265 18 305 27 25 5 70 11 100 13 30 1 69 6 85
10 17 3 64 7 105 8 41 0 78 5 81 10 9 12 107 18 114 6 4 -5 13 -5 24 1 20 10
68 12 316 14 150 1 292 -8 303 -18 7 -7 11 -7 -176 -12 -84 -2 -169 -8 -190
-14 -20 -5 -56 -10 -80 -10 -44 0 -175 -18 -202 -27 -8 -3 -25 -7 -38 -9 -13
-1 -30 -8 -39 -15 -12 -11 -17 -10 -24 3 -7 13 -16 14 -61 3 -35 -8 -54 -17
-56 -28 -4 -22 -8 -21 -39 3 -18 14 -29 17 -38 10 -7 -6 -19 -8 -27 -5 -21 8
-68 -12 -68 -30 0 -21 -49 -20 -57 1 -5 15 -7 15 -15 0 -11 -20 -28 -21 -28
-1 0 8 -4 15 -10 15 -5 0 -10 -5 -10 -12 0 -9 -3 -9 -12 0 -18 18 -28 15 -28
-8 0 -16 -7 -20 -34 -20 -24 0 -36 5 -39 18 -4 13 -5 12 -6 -4 -1 -22 -42 -41
-61 -29 -6 4 -16 3 -22 -2 -7 -4 -47 -8 -88 -10 -177 -5 -239 -10 -254 -22
-13 -11 -25 -11 -67 0 -47 12 -52 12 -65 -6 -12 -16 -18 -17 -33 -8 -14 9 -21
9 -30 0 -8 -8 -14 -8 -23 1 -15 15 -58 16 -58 1 0 -8 -4 -8 -13 -1 -10 9 -19
7 -35 -4 -17 -12 -26 -12 -43 -3 -13 7 -24 7 -28 2 -3 -6 -13 -11 -21 -11 -77
-8 -119 -8 -139 0 -17 6 -27 5 -32 -4 -13 -20 -941 -16 -1109 5 -275 35 -462
72 -670 133 -160 46 -285 88 -305 101 -11 7 -25 13 -31 13 -25 0 -235 106
-364 184 -57 35 -188 127 -230 163 -140 118 -370 344 -370 364 0 6 -12 26 -27
45 -16 18 -36 43 -45 56 -10 13 -33 44 -52 70 -19 25 -42 61 -52 80 -9 18 -25
44 -35 57 -11 13 -19 32 -19 41 0 10 -16 42 -36 71 -20 30 -48 86 -62 124 -14
39 -31 79 -38 90 -16 25 -80 199 -104 285 -11 36 -24 79 -30 95 -26 69 -84
373 -95 500 -3 44 -11 94 -16 110 -15 49 -28 286 -40 700 -6 215 -12 413 -14
440 -2 28 1 73 6 100 5 28 14 118 19 200 14 201 27 323 39 365 5 19 17 71 26
115 9 44 24 86 33 93 22 17 47 15 63 -4z m7199 -634 c-8 -5 -31 -10 -50 -10
-26 0 -31 3 -20 10 8 5 31 10 50 10 26 0 31 -3 20 -10z m-335 -92 c38 -9 -24
-25 -140 -38 -60 -7 -137 -16 -170 -20 -164 -21 -175 -22 -175 -11 0 15 66 27
283 53 53 7 97 16 97 21 0 5 14 6 30 2 20 -4 30 -3 30 5 0 9 4 9 13 2 6 -5 21
-12 32 -14z m53 0 c-6 -18 -28 -21 -28 -4 0 9 7 16 16 16 9 0 14 -5 12 -12z
m-948 -74 c0 -8 5 -12 10 -9 6 3 10 15 10 26 0 12 7 19 20 19 14 0 20 -7 20
-21 0 -14 5 -19 14 -16 8 3 17 3 21 -1 4 -4 17 -7 28 -7 29 0 29 -29 0 -33
-12 -2 -27 -10 -34 -19 -14 -16 3 -16 226 7 87 9 184 13 215 10 24 -2 -19 -16
-75 -25 -27 -4 -57 -11 -66 -16 -9 -4 -70 -13 -135 -20 -136 -12 -163 -19
-119 -29 17 -3 35 -4 40 -1 6 3 26 7 45 8 19 2 76 6 125 9 50 4 106 6 125 6
19 0 40 4 47 10 9 8 13 7 13 -2 0 -9 11 -11 43 -6 70 12 89 14 162 20 39 4 84
9 100 12 45 9 93 8 83 -1 -5 -6 -86 -22 -178 -35 -36 -5 -76 -12 -90 -14 -14
-3 -79 -14 -145 -26 -156 -26 -165 -29 -165 -40 0 -14 59 -12 213 5 166 18
267 24 267 15 0 -6 -45 -19 -65 -20 -3 0 -18 -6 -33 -14 -26 -13 -478 -85
-636 -101 -11 -1 -22 -8 -24 -16 -7 -19 -23 -29 -49 -29 -30 0 -43 -27 -31
-63 9 -23 15 -27 32 -22 11 3 28 6 36 5 8 0 37 -2 65 -3 37 -1 50 -6 53 -18 2
-13 -7 -18 -45 -22 -26 -3 -59 -8 -73 -11 -14 -2 -33 -5 -42 -5 -12 -1 -18 -9
-18 -26 0 -25 -20 -37 -20 -12 0 7 -5 4 -11 -5 -12 -21 -98 -22 -106 -1 -7 17
-23 16 -23 -1 0 -24 -87 -44 -249 -56 -85 -7 -164 -15 -175 -20 -12 -4 -63
-11 -113 -15 -79 -6 -94 -5 -99 8 -3 9 -14 120 -25 249 -10 128 -22 252 -25
275 -9 63 7 69 231 89 240 22 291 25 447 28 71 1 131 5 134 9 10 10 44 -12 44
-29z m400 6 c0 -15 -13 -19 -86 -25 -38 -3 -86 -9 -107 -14 -39 -9 -51 -3 -41
22 4 11 13 13 40 7 20 -5 37 -4 40 2 3 5 12 7 20 4 7 -3 16 -2 18 3 7 11 116
12 116 1z m560 -74 c0 -3 -4 -8 -10 -11 -5 -3 -10 -1 -10 4 0 6 5 11 10 11 6
0 10 -2 10 -4z m280 -172 c0 -8 -12 -12 -30 -12 -33 1 -41 14 -12 20 31 7 42
5 42 -8z m-75 -4 c3 -5 1 -10 -4 -10 -6 0 -11 5 -11 10 0 6 2 10 4 10 3 0 8
-4 11 -10z m89 -55 c3 -8 12 -15 21 -15 24 0 18 -37 -7 -44 -22 -6 -22 -7 -5
-20 24 -18 15 -23 -60 -30 -59 -6 -63 -5 -63 14 0 13 -7 20 -20 20 -13 0 -20
-7 -20 -20 0 -11 -4 -20 -10 -20 -5 0 -10 7 -10 15 0 8 -4 15 -10 15 -5 0 -10
-8 -10 -18 0 -26 -42 -26 -59 -1 -16 28 -1 44 42 45 84 3 87 4 87 23 0 24 11
31 57 37 21 3 39 7 42 9 9 9 19 5 25 -10z m-209 -35 c-28 -12 -45 -12 -45 0 0
6 15 10 33 9 27 0 29 -2 12 -9z m-71 -49 c4 -5 3 -16 0 -25 -5 -12 -9 -13 -24
-3 -14 8 -16 15 -8 24 12 15 25 17 32 4z m-138 -39 c-4 -3 -33 -8 -66 -10 -73
-5 -83 14 -12 23 26 3 54 7 62 8 16 3 26 -10 16 -21z m54 18 c0 -5 -7 -10 -16
-10 -8 0 -12 5 -9 10 3 6 10 10 16 10 5 0 9 -4 9 -10z m-225 -31 c-22 -4 -51
-8 -65 -7 -23 0 -22 1 5 8 17 4 46 8 65 8 l35 0 -40 -9z m-455 -19 c0 -5 -4
-10 -10 -10 -5 0 -10 5 -10 10 0 6 5 10 10 10 6 0 10 -4 10 -10z m-7980 -475
c0 -6 -90 -45 -103 -45 -19 0 11 23 45 36 36 13 58 16 58 9z m529 -30 c15 9
133 -23 160 -43 14 -10 33 -42 44 -72 10 -29 29 -67 43 -83 13 -15 24 -37 24
-48 0 -10 9 -24 20 -31 19 -12 135 -144 153 -175 5 -7 -5 -18 -28 -28 -33 -16
-36 -16 -71 4 -46 27 -202 91 -223 91 -14 0 -14 2 -1 10 16 10 16 11 -25 30
-34 15 -264 27 -292 15 -10 -5 -21 -8 -25 -7 -11 2 -132 -25 -163 -37 -16 -7
-35 -19 -42 -27 -6 -8 -22 -16 -36 -18 -14 -1 -32 -7 -39 -13 -7 -6 -26 -15
-41 -18 -16 -4 -31 -14 -34 -21 -3 -8 -10 -14 -15 -14 -6 0 -30 -13 -55 -30
-24 -16 -48 -30 -53 -30 -5 0 -17 -11 -26 -25 -9 -14 -22 -25 -30 -25 -22 0
-27 -21 -10 -38 15 -16 17 -15 22 6 4 12 14 22 24 22 10 0 26 8 36 17 21 22
65 45 72 39 2 -3 14 1 26 9 11 8 27 15 35 15 8 0 39 12 70 27 34 16 72 26 96
26 22 0 45 3 50 7 6 4 21 7 35 6 14 -1 30 4 35 10 6 6 34 14 63 17 80 9 61
-14 -24 -30 -109 -20 -295 -120 -449 -242 -121 -96 -425 -393 -584 -571 -120
-136 -208 -234 -246 -274 -59 -63 -224 -242 -250 -271 -225 -251 -465 -446
-735 -595 -111 -62 -275 -140 -293 -140 -7 0 -17 -4 -23 -9 -5 -4 -34 -16 -64
-26 -30 -10 -71 -23 -90 -30 -70 -25 -276 -69 -449 -96 -92 -14 -359 -19 -476
-9 -144 13 -295 44 -510 106 -27 8 -65 19 -83 23 -18 5 -39 14 -47 21 -8 7
-40 20 -72 30 l-58 18 -132 243 c-73 134 -132 253 -130 264 4 33 48 41 98 17
69 -33 216 -82 309 -103 47 -11 114 -26 150 -34 36 -8 79 -15 97 -15 17 0 44
-5 60 -11 52 -20 364 -23 513 -4 74 9 144 19 155 21 11 2 43 8 70 13 28 6 70
14 95 20 64 14 293 91 305 102 5 5 15 9 22 9 19 0 213 97 313 156 113 67 244
159 360 253 157 127 607 584 744 756 130 163 463 494 544 541 17 10 32 22 32
26 0 4 9 12 20 18 19 10 20 9 14 -14 -5 -20 -2 -26 10 -26 20 0 21 -15 1 -32
-9 -7 -21 -19 -28 -27 -19 -21 -94 -95 -189 -184 -86 -81 -103 -109 -72 -121
19 -7 74 23 74 41 0 13 68 79 78 76 11 -3 42 29 42 43 0 20 81 101 87 87 7
-20 26 -15 19 4 -15 37 182 188 372 285 126 64 295 106 501 123 36 3 67 8 69
10 3 2 13 0 24 -6 10 -5 22 -7 27 -4z m-764 -75 c-3 -5 -12 -10 -18 -10 -7 0
-6 4 3 10 19 12 23 12 15 0z m-210 -150 c3 -5 1 -10 -4 -10 -6 0 -11 5 -11 10
0 6 2 10 4 10 3 0 8 -4 11 -10z m25 -46 c0 -8 -4 -12 -10 -9 -5 3 -10 10 -10
16 0 5 5 9 10 9 6 0 10 -7 10 -16z m6880 -2064 c0 -5 -7 -10 -16 -10 -8 0 -12
5 -9 10 3 6 10 10 16 10 5 0 9 -4 9 -10z m970 -109 c0 -13 -27 -21 -73 -21
-42 0 -289 -26 -337 -36 -45 -9 -290 -44 -340 -48 -19 -2 -53 -8 -75 -14 -39
-10 -187 -28 -310 -38 -33 -2 -74 -7 -92 -9 -17 -3 -34 -2 -37 3 -6 10 89 28
194 37 36 4 72 8 80 10 8 2 89 11 180 20 91 9 192 23 225 30 169 41 585 87
585 66z m30 -1 c0 -5 -4 -10 -10 -10 -5 0 -10 5 -10 10 0 6 5 10 10 10 6 0 10
-4 10 -10z m-8585 -1650 c-4 -517 -4 -940 -1 -940 7 0 76 55 316 254 345 286
433 359 573 474 l148 122 133 0 c73 0 135 -3 139 -6 3 -4 -110 -94 -251 -200
-613 -462 -766 -580 -769 -590 -3 -10 300 -347 904 -1008 125 -136 188 -213
180 -217 -6 -3 -37 -9 -67 -13 -30 -3 -122 -15 -205 -25 -82 -11 -153 -17
-157 -15 -4 3 -213 261 -463 573 -250 312 -461 574 -470 581 -13 11 -15 -43
-15 -544 l0 -556 -185 0 -185 0 0 1525 0 1525 191 0 192 0 -8 -940z m-2544
842 c3 -4 1 -74 -4 -155 l-10 -149 -26 5 c-35 6 -223 48 -411 93 -175 41 -241
44 -387 17 l-93 -17 0 -1368 0 -1368 -215 0 -215 0 0 1370 0 1370 -22 4 c-182
39 -270 39 -438 -1 -249 -59 -443 -103 -446 -100 -2 2 -24 272 -24 301 0 18
38 19 1143 12 628 -4 1145 -11 1148 -14z m7371 -978 c9 -65 17 -134 17 -151 1
-31 -1 -33 -31 -33 -155 0 -484 -154 -650 -304 l-28 -25 0 -737 0 -737 -186 6
c-102 3 -187 7 -187 9 -1 2 -1 454 1 1006 l2 1002 129 0 128 0 49 -180 c26
-99 51 -179 55 -178 3 2 35 39 71 83 85 105 183 185 330 268 72 42 243 99 273
93 6 -2 17 -56 27 -122z m-6392 85 c148 -19 321 -101 381 -180 40 -52 74 -126
100 -214 23 -79 23 -90 29 -650 5 -521 7 -574 24 -620 34 -93 66 -145 133
-215 36 -39 64 -72 62 -75 -17 -16 -215 -155 -222 -155 -5 0 -86 70 -180 155
-95 85 -177 155 -183 155 -6 0 -31 -17 -55 -38 -116 -102 -272 -194 -409 -243
-54 -19 -85 -23 -180 -23 -105 0 -122 3 -192 31 -190 75 -289 214 -289 403 0
190 92 341 268 440 163 92 460 172 806 215 l48 6 -3 267 c-3 240 -6 272 -24
315 -26 61 -89 128 -147 156 -144 70 -396 62 -702 -19 -60 -17 -115 -30 -122
-30 -6 0 -19 23 -29 52 l-17 52 24 19 c65 54 314 152 459 182 156 32 255 35
420 14z m4181 -4 c144 -22 284 -81 362 -154 44 -41 94 -137 123 -241 l27 -95
7 -565 c5 -418 10 -575 19 -605 27 -81 74 -159 137 -223 35 -37 64 -67 64 -68
0 -2 -172 -128 -202 -148 l-27 -17 -158 143 c-87 79 -168 151 -180 161 -21 18
-22 17 -111 -55 -227 -184 -425 -258 -637 -237 -171 17 -319 131 -378 289 -39
107 -28 259 26 367 103 201 394 336 887 409 91 13 171 24 178 24 9 0 12 55 12
244 0 214 -2 252 -20 307 -50 165 -180 239 -417 239 -131 0 -283 -23 -440 -66
-69 -19 -128 -32 -133 -29 -12 7 -33 93 -27 109 4 9 57 40 119 70 271 131 526
177 769 141z m5971 -9 c100 -18 186 -64 248 -134 43 -49 64 -86 100 -185 l10
-29 77 72 c215 201 490 306 731 279 179 -20 314 -142 381 -346 54 -162 56
-194 56 -988 l0 -730 -185 0 -185 0 3 645 c4 707 -2 852 -42 968 -39 118 -89
160 -212 183 -154 29 -371 -46 -513 -177 l-56 -52 -5 -783 -5 -784 -25 -4
c-14 -2 -98 0 -187 4 l-162 7 -4 752 c-3 800 -2 773 -52 891 -25 60 -90 122
-148 141 -147 49 -414 -46 -589 -209 l-38 -35 0 -771 0 -771 -189 0 -189 0 1
753 2 752 -23 80 c-27 92 -73 173 -143 249 -27 30 -49 56 -49 59 0 7 207 157
217 157 5 0 87 -72 183 -159 170 -157 174 -160 195 -143 351 277 545 352 797
308z m-3082 -836 c5 -732 7 -799 24 -849 22 -66 56 -122 92 -150 48 -38 156
-64 242 -59 110 6 195 53 324 177 l98 93 0 412 c0 226 3 583 7 794 l6 382 186
-2 186 -3 1 -747 c1 -525 5 -767 14 -815 16 -94 80 -213 153 -286 32 -32 57
-60 55 -61 -41 -35 -221 -157 -227 -154 -6 2 -85 71 -176 153 -92 83 -173 151
-181 153 -8 2 -44 -24 -82 -58 -167 -153 -338 -235 -510 -246 -124 -8 -209 7
-297 50 -139 69 -217 164 -266 326 l-23 75 -4 808 -3 807 188 -2 188 -3 5
-795z"/>
<path d="M7970 13540 c0 -19 11 -26 23 -14 8 8 -3 34 -14 34 -5 0 -9 -9 -9
-20z"/>
<path d="M7350 13534 c-102 -11 -154 -31 -195 -71 -44 -45 -23 -80 42 -69 44
7 72 11 145 21 29 4 64 8 78 10 14 3 31 0 39 -4 10 -7 -1 -11 -35 -16 -93 -12
-143 -27 -188 -56 -25 -16 -46 -34 -46 -40 0 -6 15 -1 33 10 48 29 141 51 254
59 96 7 98 8 98 32 0 15 5 24 12 23 7 -2 60 -4 117 -6 68 -2 109 -7 120 -16 9
-7 16 -9 16 -4 0 13 32 13 47 1 17 -14 133 -36 133 -26 0 4 -5 8 -11 8 -6 0
-8 8 -5 18 5 15 -2 22 -34 35 -22 8 -40 22 -40 31 0 10 -13 17 -37 21 -21 4
-51 11 -68 15 -94 28 -340 40 -475 24z m180 -113 c0 -5 -9 -11 -20 -14 -13 -3
-20 0 -20 9 0 8 9 14 20 14 11 0 20 -4 20 -9z"/>
<path d="M8060 13520 c0 -5 5 -10 10 -10 6 0 10 5 10 10 0 6 -4 10 -10 10 -5
0 -10 -4 -10 -10z"/>
<path d="M8094 13519 c-3 -6 0 -15 7 -20 22 -14 29 -11 29 11 0 21 -24 27 -36
9z"/>
<path d="M8170 13490 c0 -5 5 -10 10 -10 6 0 10 5 10 10 0 6 -4 10 -10 10 -5
0 -10 -4 -10 -10z"/>
<path d="M7621 13394 c0 -11 3 -14 6 -6 3 7 2 16 -1 19 -3 4 -6 -2 -5 -13z"/>
<path d="M7355 13324 c-81 -12 -170 -69 -180 -115 -8 -38 -1 -47 22 -27 49 43
138 67 283 77 90 6 95 7 98 29 3 16 8 22 19 18 8 -3 17 -6 19 -6 2 0 4 -8 5
-17 0 -14 3 -13 11 5 6 12 8 25 5 29 -8 7 -239 13 -282 7z"/>
<path d="M7760 13301 c0 -6 5 -13 10 -16 6 -3 10 1 10 9 0 9 -4 16 -10 16 -5
0 -10 -4 -10 -9z"/>
<path d="M7910 13266 c0 -8 10 -16 23 -18 34 -5 87 3 82 12 -3 5 -14 6 -24 3
-10 -3 -22 0 -25 6 -11 16 -56 14 -56 -3z"/>
<path d="M7470 13180 c-42 -4 -87 -10 -100 -14 -47 -13 -100 -39 -100 -48 0
-6 17 -7 38 -4 20 3 64 8 97 12 73 7 186 33 200 45 5 6 3 9 -5 9 -8 0 -24 2
-35 4 -11 2 -54 0 -95 -4z"/>
<path d="M14865 9210 c3 -5 8 -10 11 -10 2 0 4 5 4 10 0 6 -5 10 -11 10 -5 0
-7 -4 -4 -10z"/>
<path d="M14022 9083 c2 -20 9 -29 26 -31 19 -3 22 1 22 27 0 27 -4 31 -26 31
-22 0 -25 -4 -22 -27z"/>
<path d="M13900 9070 c0 -36 11 -39 26 -5 12 26 9 35 -13 35 -8 0 -13 -12 -13
-30z"/>
<path d="M13962 9084 c4 -21 22 -23 26 -1 2 10 -3 17 -13 17 -10 0 -15 -6 -13
-16z"/>
<path d="M13777 8994 c-4 -4 -7 -18 -7 -31 0 -20 5 -24 22 -21 26 3 38 38 15
38 -9 0 -17 5 -19 11 -2 5 -7 7 -11 3z"/>
<path d="M13722 8965 c0 -16 2 -22 5 -12 2 9 2 23 0 30 -3 6 -5 -1 -5 -18z"/>
<path d="M16045 12030 c3 -5 8 -10 11 -10 2 0 4 5 4 10 0 6 -5 10 -11 10 -5 0
-7 -4 -4 -10z"/>
<path d="M8699 11415 c-3 -2 -25 -6 -50 -9 -24 -2 -78 -16 -119 -31 -41 -14
-91 -32 -110 -38 -19 -6 -52 -21 -72 -34 -21 -13 -41 -23 -46 -23 -9 0 -138
-84 -162 -105 -8 -7 -22 -15 -30 -17 -8 -2 -18 -12 -21 -23 -3 -13 -13 -20
-27 -19 -15 0 -22 -5 -22 -19 0 -11 -35 -54 -83 -101 -45 -44 -89 -89 -96 -99
-28 -36 20 -6 78 50 31 29 62 51 69 48 6 -2 12 0 12 5 0 6 3 9 8 8 9 -3 52 21
70 39 15 15 32 17 32 4 0 -4 -59 -64 -131 -132 -155 -146 -144 -134 -193 -190
-22 -24 -57 -62 -78 -85 -30 -31 -40 -51 -43 -84 l-5 -43 88 84 c87 84 152
144 273 251 35 31 82 72 104 92 102 91 276 191 415 239 124 43 167 49 358 49
102 -1 180 3 177 8 -3 5 16 10 42 12 l48 3 -65 32 c-36 17 -84 34 -107 38 -24
4 -45 11 -49 16 -3 5 -16 9 -28 9 -25 0 -54 26 -42 37 4 4 16 2 26 -5 17 -10
20 -10 20 3 0 10 -10 15 -33 15 -18 0 -38 5 -45 12 -9 9 -12 9 -12 0 0 -9 -5
-10 -19 -2 -20 10 -123 14 -132 5z"/>
<path d="M7921 11177 c-6 -8 -8 -17 -4 -20 7 -8 33 11 33 24 0 13 -16 11 -29
-4z"/>
<path d="M9135 11110 c3 -5 13 -10 21 -10 8 0 12 5 9 10 -3 6 -13 10 -21 10
-8 0 -12 -4 -9 -10z"/>
<path d="M7580 10755 c0 -8 5 -15 10 -15 6 0 10 7 10 15 0 8 -4 15 -10 15 -5
0 -10 -7 -10 -15z"/>
<path d="M5818 6208 c-301 -36 -553 -158 -624 -303 -24 -51 -26 -63 -21 -132
10 -137 87 -256 201 -315 35 -18 45 -19 91 -9 108 24 281 126 378 222 l57 57
0 241 c0 132 -3 241 -7 244 -5 2 -38 0 -75 -5z"/>
<path d="M10030 6203 c-19 -3 -90 -15 -158 -28 -225 -44 -404 -142 -483 -264
-25 -39 -29 -55 -29 -118 0 -137 68 -260 183 -331 l57 -35 57 13 c148 36 408
219 428 302 10 40 1 461 -10 463 -5 1 -26 0 -45 -2z"/>
</g>
</svg>
